<svg width="48" height="45" viewBox="0 0 50 50" fill="none" xmlns="http://www.w3.org/2000/svg">
<g id="Iconsax/Linear/dollarcircle">
<path id="Vector" d="M17.344 26.8687C17.344 29.2875 19.324 31.2375 21.784 31.2375H26.804C28.944 31.2375 30.684 29.5313 30.684 27.4313C30.684 25.1438 29.624 24.3375 28.044 23.8125L19.984 21.1875C18.404 20.6625 17.344 19.8562 17.344 17.5687C17.344 15.4687 19.084 13.7625 21.224 13.7625H26.244C28.704 13.7625 30.684 15.7125 30.684 18.1313M24 11.25V33.75" stroke="black" stroke-width="1.5" stroke-linecap="round" stroke-linejoin="round"/>
<path id="Vector_2" d="M24 41.25C35.046 41.25 44 32.8556 44 22.5C44 12.1444 35.046 3.75 24 3.75C12.954 3.75 4 12.1444 4 22.5C4 32.8556 12.954 41.25 24 41.25Z" stroke="black" stroke-width="1.5" stroke-linecap="round" stroke-linejoin="round"/>
</g>
</svg>
